<svg width="69" height="69" viewBox="0 0 69 69" fill="none" xmlns="http://www.w3.org/2000/svg">
<path d="M25.875 49.5938V52.4889C25.8751 53.6219 25.652 54.7439 25.2184 55.7907C24.7848 56.8375 24.1492 57.7886 23.3479 58.5896L21.5625 60.375H47.4375L45.6521 58.5896C44.8508 57.7886 44.2152 56.8375 43.7816 55.7907C43.348 54.7439 43.1249 53.6219 43.125 52.4889V49.5938M60.375 15.0938V43.125C60.375 44.8406 59.6935 46.486 58.4803 47.6991C57.2672 48.9122 55.6219 49.5937 53.9062 49.5938H15.0938C13.3781 49.5937 11.7328 48.9122 10.5197 47.6991C9.30653 46.486 8.625 44.8406 8.625 43.125V15.0938M60.375 15.0938C60.375 13.3781 59.6935 11.7328 58.4803 10.5197C57.2672 9.30653 55.6219 8.625 53.9062 8.625H15.0938C13.3781 8.625 11.7328 9.30653 10.5197 10.5197C9.30653 11.7328 8.625 13.3781 8.625 15.0938M60.375 15.0938V34.5C60.375 36.2156 59.6935 37.861 58.4803 39.0741C57.2672 40.2872 55.6219 40.9688 53.9062 40.9688H15.0938C13.3781 40.9688 11.7328 40.2872 10.5197 39.0741C9.30653 37.861 8.625 36.2156 8.625 34.5V15.0938" stroke="#0175C1" stroke-width="3" stroke-linecap="round" stroke-linejoin="round"/>
<g clip-path="url(#clip0_6_13)">
<path d="M40.75 21L46 26.25L40.75 31.5M30.25 31.5L25 26.25L30.25 21M37.75 18L33.25 34.5" stroke="#0175C1" stroke-width="3" stroke-linecap="round" stroke-linejoin="round"/>
</g>
<defs>
<clipPath id="clip0_6_13">
<rect width="24" height="24" fill="white" transform="translate(23 14)"/>
</clipPath>
</defs>
</svg>
