<svg width="32" height="32" viewBox="0 0 32 32" fill="none" xmlns="http://www.w3.org/2000/svg">
<path d="M8.21875 5L8.0625 5.8125L7.5625 8.6875L7.34375 9.875H21.4688L21.1562 11.6875H7.03125L6.875 12.5L6.375 15.375L6.15625 16.5312H20.2812L19.5625 20.5938L14.3438 23L10.25 20.75L10.4688 19.5312L10.6875 18.375H5.8125L5.6875 19.1875L5 23L4.84375 23.75L5.53125 24.0938L13.3438 27.9062L13.75 28.0938L14.1562 27.9375L23.3125 24.0938L23.8125 23.9062L23.9375 23.3438L27 6.1875L27.2188 5H8.21875ZM24.8125 7L22.0625 22.4688L13.7812 25.875L7.09375 22.625L6.875 20.375L6.15625 21.5L7.5625 23.9062L13.7812 25.875L14.1562 26.5L15 25.875L20.7709 23L22.0625 22.4688L22.3681 20.75L23.3125 15.4375L22.6875 14.5312H8.5625L23.3125 15.4375L23.8125 12.625L24.4126 9.24963L24.8125 7Z" fill="#399ED6"/>
</svg>
